<svg width="83" height="83" viewBox="0 0 83 83" fill="none" xmlns="http://www.w3.org/2000/svg">
<path d="M29.5107 16.1397V13.8342C29.5107 13.7419 29.6029 13.7419 29.8796 13.6497H29.9718V13.373H29.0496V13.4653C29.0496 13.4653 28.6807 14.2953 28.4041 14.8486C28.3118 15.033 28.2196 15.3097 28.1274 15.4942C28.0352 15.5864 28.0352 15.7708 27.9429 15.863C27.8507 15.5864 27.6663 15.2175 27.4818 14.8486C27.2052 14.2953 26.8363 13.4653 26.8363 13.4653V13.373H25.8218V13.6497H25.914C26.0985 13.6497 26.1907 13.7419 26.2829 13.7419C26.3752 13.7419 26.3752 13.8342 26.4674 14.0186V15.9553C26.4674 16.1397 26.4674 16.3242 26.0985 16.3242H26.0063V16.693H26.5596C26.8363 16.693 27.1129 16.693 27.2052 16.7853H27.2974V16.4164H27.2052C26.8363 16.3242 26.8363 16.3242 26.7441 16.1397V14.7564C26.8363 14.8486 26.8363 14.9408 26.9285 15.1253L27.0207 15.4019C27.0207 15.4942 27.1129 15.5864 27.1129 15.6786C27.2974 15.9553 27.4818 16.3242 27.6663 16.8775V16.9697H27.9429V16.8775C28.0352 16.6008 28.2196 16.0475 28.4963 15.6786L28.5885 15.4942C28.6807 15.3097 28.6807 15.2175 28.7729 15.033C28.8652 14.9408 28.8652 14.8486 28.9574 14.6642V16.3242C28.9574 16.4164 28.8652 16.5086 28.5885 16.5086H28.4963V16.7853H28.5885C28.5885 16.7853 28.9574 16.693 29.1418 16.693C29.4185 16.693 29.6952 16.693 29.9718 16.7853H30.064V16.4164H29.9718C29.6029 16.3242 29.5107 16.2319 29.5107 16.1397ZM35.2285 13.373H34.3985V13.7419H34.4907C34.7674 13.7419 34.8596 13.8342 34.8596 13.9264C34.9518 14.0186 34.9518 14.2953 34.9518 14.4797V15.3097C34.9518 16.2319 34.3985 16.3242 34.0296 16.3242C33.6607 16.3242 33.1074 16.2319 33.1074 15.4019V14.1108C33.1074 13.8342 33.1996 13.8342 33.5685 13.7419H33.6607V13.4653H31.9085V13.7419H32.0007C32.3696 13.8342 32.4618 13.8342 32.4618 14.203V15.5864C32.4618 16.4164 33.0152 16.8775 33.9374 16.8775C34.5829 16.8775 35.3207 16.5086 35.3207 15.4942V14.5719C35.3207 14.3875 35.3207 14.1108 35.4129 14.0186C35.4129 13.9264 35.5052 13.9264 35.7818 13.9264H35.874V13.5575H35.7818C35.5052 13.373 35.3207 13.373 35.2285 13.373ZM39.1941 14.7564C38.7329 14.5719 38.6407 14.3875 38.6407 14.203C38.6407 13.9264 38.8252 13.7419 39.1941 13.7419C39.4707 13.7419 39.6552 13.9264 39.6552 14.203V14.2953H39.9318V13.5575H39.8396C39.5629 13.4653 39.3785 13.373 39.1018 13.373C38.4563 13.373 37.9952 13.7419 37.9952 14.2953C37.9952 14.7564 38.2718 15.033 38.9174 15.3097C39.3785 15.4942 39.4707 15.5864 39.4707 15.863C39.4707 16.1397 39.194 16.4164 38.9174 16.4164C38.5485 16.4164 38.3641 16.2319 38.2718 15.863V15.7708H37.9952V16.6008H38.0874C38.3641 16.693 38.7329 16.7853 39.0096 16.7853C39.7474 16.7853 40.2085 16.3242 40.2085 15.7708C40.1163 15.1253 39.6552 14.9408 39.1941 14.7564ZM44.7274 15.7708C44.6352 16.0475 44.6352 16.1397 44.5429 16.1397C44.4507 16.1397 44.1741 16.2319 43.8974 16.2319C43.7129 16.2319 43.6207 16.2319 43.5285 16.1397C43.5285 16.1397 43.4363 15.9553 43.4363 15.5864V15.1253H43.7129C43.8974 15.1253 44.0818 15.1253 44.0818 15.2175C44.1741 15.2175 44.1741 15.4019 44.2663 15.4942V15.6786L44.5429 15.5864V15.4942C44.4507 15.3097 44.4507 15.1253 44.4507 14.9408V14.4797H44.2663V14.5719C44.1741 14.7564 44.1741 14.8486 44.0818 14.8486C43.9896 14.8486 43.8974 14.9408 43.7129 14.9408H43.4363V13.9264H43.8052C44.0818 13.9264 44.1741 13.9264 44.2663 14.0186C44.3585 14.1108 44.4507 14.203 44.4507 14.3875V14.4797H44.7274V13.5575H42.2374V13.8342H42.4218C42.6063 13.8342 42.7907 13.9264 42.7907 14.0186V16.4164C42.7907 16.5086 42.6063 16.5086 42.4218 16.5086H42.3296V16.7853H44.9118V16.693C44.9118 16.5086 44.9118 16.5086 45.0041 16.3242V15.863L44.7274 15.7708ZM50.4452 13.373H49.7074V13.7419H49.7996C50.0763 13.7419 50.1685 13.8342 50.1685 13.9264C50.2607 14.0186 50.2607 14.2953 50.2607 14.4797V15.3097C50.2607 16.2319 49.7074 16.3242 49.3385 16.3242C48.9696 16.3242 48.4163 16.2319 48.4163 15.4019V14.1108C48.4163 13.8342 48.5085 13.8342 48.8774 13.7419H48.9696V13.4653H47.2174V13.7419H47.3096C47.6785 13.8342 47.7707 13.8342 47.7707 14.203V15.5864C47.7707 16.4164 48.324 16.8775 49.2463 16.8775C49.8918 16.8775 50.6296 16.5086 50.6296 15.4942V14.5719C50.6296 14.3875 50.6296 14.1108 50.7218 14.0186C50.7218 13.9264 50.814 13.9264 51.0907 13.9264H51.1829V13.5575H51.0907C50.7218 13.373 50.6296 13.373 50.4452 13.373ZM57.1774 16.3242C56.9007 16.2319 56.8085 16.2319 56.8085 16.1397V13.8342C56.8085 13.7419 56.9007 13.7419 57.1774 13.6497H57.2696V13.373H56.2552V13.4653C56.2552 13.4653 55.8863 14.2953 55.6096 14.8486C55.5174 15.033 55.4252 15.3097 55.3329 15.4942C55.2407 15.5864 55.2407 15.6786 55.1485 15.7708C55.0563 15.4942 54.8718 15.1253 54.6874 14.7564L54.0418 13.4653V13.373H53.0274V13.6497H53.1196C53.3041 13.6497 53.3963 13.7419 53.4885 13.7419C53.5807 13.7419 53.5807 13.8342 53.6729 14.0186V16.0475C53.6729 16.2319 53.6729 16.4164 53.3041 16.4164H53.2118V16.7853H53.7652C54.0418 16.7853 54.3185 16.7853 54.4107 16.8775H54.5029V16.5086H54.4107C54.0418 16.4164 54.0418 16.4164 53.9496 16.2319V14.8486C54.0418 14.9408 54.0418 15.033 54.134 15.2175L54.2263 15.4942C54.2263 15.5864 54.3185 15.6786 54.3185 15.7708C54.5029 16.0475 54.6874 16.4164 54.8718 16.9697V17.0619H55.1485V16.9697C55.2407 16.693 55.5174 16.1397 55.7018 15.7708L55.7941 15.5864C55.8863 15.4019 55.8863 15.3097 55.9785 15.1253C56.0707 15.033 56.0707 14.9408 56.1629 14.7564V16.4164C56.1629 16.5086 56.0707 16.6008 55.7941 16.6008H55.7018V16.8775H55.7941C55.7941 16.8775 56.1629 16.7853 56.3474 16.7853C56.6241 16.7853 56.9007 16.7853 57.1774 16.8775H57.2696V16.5086L57.1774 16.3242ZM9.03739 24.4397C9.12961 24.7164 9.12961 25.1775 9.12961 26.3764C9.12961 27.7597 9.12961 28.313 9.03739 28.5897C8.94516 28.8664 8.85294 29.0508 8.11516 29.143C8.11516 29.143 8.02294 29.143 8.02294 29.2353V29.6042C8.48405 29.5119 8.94516 29.5119 9.59072 29.5119C10.1441 29.5119 10.7896 29.5119 11.2507 29.6042V29.2353C11.2507 29.2353 11.2507 29.143 11.1585 29.143C10.5129 29.0508 10.3285 28.9586 10.2363 28.7742C10.144 28.5897 10.0518 27.8519 10.0518 25.823V23.9786H10.3285C11.1585 23.9786 11.6196 24.5319 11.6196 25.2697C11.6196 26.0075 11.1585 26.5608 10.4207 26.653C10.4207 26.653 10.3285 26.653 10.3285 26.7453V27.0219C10.3285 27.0219 10.3285 27.1142 10.4207 27.1142C11.3429 27.1142 11.8963 27.0219 12.2652 26.653C12.6341 26.3764 12.9107 25.9153 12.9107 25.3619C12.9107 24.2553 11.9885 23.6097 10.6052 23.6097H7.74627C7.74627 23.6097 7.65405 23.6097 7.65405 23.7019V23.9786C7.65405 23.9786 7.65405 24.0708 7.74627 24.0708C8.76072 23.9786 8.94516 24.0708 9.03739 24.4397ZM21.3029 29.6964H22.3174C22.4096 29.5119 22.4096 29.4197 22.5018 29.143C22.6863 28.6819 22.8707 28.313 22.9629 28.1286V28.0364H22.4096C22.1329 28.4975 21.8563 28.7742 21.5796 28.9586C21.3029 29.143 21.0263 29.143 20.7496 29.143C20.1963 29.143 20.0118 29.0508 19.8274 28.9586C19.5507 28.7742 19.4585 28.5897 19.4585 27.6675V26.0075C19.4585 24.7164 19.4585 24.4397 19.6429 24.2553C19.7352 24.163 20.0118 23.9786 20.3807 23.9786C20.3807 23.9786 20.4729 23.9786 20.4729 23.8864V23.5175H18.9052C18.1674 23.5175 17.7985 23.5175 17.5218 23.4253H17.3374V23.7942C17.3374 23.7942 17.3374 23.8864 17.4296 23.8864C17.8907 23.9786 18.0752 24.0708 18.2596 24.163C18.3518 24.3475 18.4441 24.5319 18.4441 24.9008V27.3908C18.4441 28.2208 18.4441 28.6819 18.3518 28.8664C18.2596 28.9586 18.1674 29.0508 17.614 29.143C17.614 29.143 17.5218 29.143 17.5218 29.2353V29.5119C17.5218 29.5119 17.5218 29.6042 17.614 29.6042H17.7063C17.8907 29.6042 18.3518 29.5119 18.8129 29.5119H20.1041C20.3807 29.6042 20.8418 29.6964 21.3029 29.6964ZM30.2485 29.2353L30.1563 29.6042H33.1996V29.2353C33.1996 29.2353 33.1996 29.143 33.1074 29.143C32.7385 29.143 32.554 29.0508 32.4618 28.8664C32.2774 28.6819 32.2774 28.4975 31.7241 27.2986C31.5396 26.9297 31.3552 26.4686 31.1707 25.823C30.6174 24.4397 30.1563 23.0564 30.1563 23.0564H29.9718C29.7874 23.4253 29.5107 23.8864 29.1418 23.8864V23.9786L29.234 24.163C29.1418 24.4397 28.2196 26.8375 27.7585 28.2208C27.4818 28.9586 27.2974 29.143 26.6518 29.2353C26.6518 29.2353 26.5596 29.2353 26.5596 29.3275V29.6964H29.0496V29.3275C29.0496 29.3275 29.0496 29.2353 28.9574 29.2353C28.3118 29.2353 28.0352 29.0508 28.0352 28.7742C28.0352 28.5897 28.4041 27.483 28.4963 27.2986H30.3407C30.4329 27.483 30.5252 27.6675 30.5252 27.8519C30.7096 28.313 30.8018 28.5897 30.8018 28.7742C31.1707 28.9586 30.9863 29.143 30.2485 29.2353ZM30.4329 26.653H29.1418L29.7874 24.9008L30.4329 26.653ZM39.1941 28.8664C39.1018 28.6819 39.1018 28.5897 39.1018 27.2064V25.0853C39.3785 25.4542 40.3929 26.5608 41.1307 27.2986L41.3152 27.5753C42.4218 28.7742 43.1596 29.6042 43.3441 29.973L43.6207 29.7886V29.6964C43.6207 29.6964 43.7129 26.2842 43.7129 26.0997C43.7129 24.993 43.7129 24.6242 43.8052 24.4397C43.8974 24.2553 44.1741 24.0708 44.7274 24.0708C44.7274 24.0708 44.8196 24.0708 44.8196 23.9786V23.5175H42.1452V23.9786C42.6985 24.0708 42.8829 24.163 42.9752 24.3475C43.0674 24.5319 43.0674 24.7164 43.0674 26.0075V27.6675C42.8829 27.3908 42.514 27.0219 42.1452 26.653L41.8685 26.2842C40.024 24.3475 39.5629 23.7019 39.4707 23.5175H37.0729C37.0729 23.5175 36.9807 23.5175 36.9807 23.6097V23.9786C36.9807 23.9786 36.9807 24.0708 37.0729 24.0708C37.6263 24.0708 37.9029 24.2553 38.2718 24.5319V27.5753C38.2718 28.6819 38.2718 28.8664 38.1796 29.0508C38.0874 29.2353 37.9029 29.3275 37.2574 29.4197C37.2574 29.4197 37.1652 29.4197 37.1652 29.5119V29.8808C37.6263 29.8808 38.0874 29.7886 38.6407 29.7886C39.2863 29.7886 39.6552 29.7886 40.024 29.8808V29.5119C40.024 29.5119 40.0241 29.4197 39.9318 29.4197C39.6552 29.143 39.2863 29.0508 39.1941 28.8664ZM49.7996 24.3475H51.4596V27.5753C51.4596 28.0364 51.4596 28.6819 51.2752 28.8664C51.1829 29.0508 50.9985 29.0508 50.7218 29.143H50.5374V29.6042C50.9063 29.6042 51.5518 29.5119 52.0129 29.5119C52.474 29.5119 53.0274 29.5119 53.5807 29.6042V29.2353C53.5807 29.2353 53.5807 29.143 53.4885 29.143C52.9352 29.0508 52.7507 28.9586 52.6585 28.5897C52.5663 28.313 52.5663 28.0364 52.5663 27.1142V24.2553H53.5807C54.1341 24.2553 54.2263 24.2553 54.3185 24.3475C54.4107 24.4397 54.4107 24.5319 54.4107 24.993C54.4107 24.993 54.4107 25.0853 54.5029 25.0853H54.8718C54.8718 25.0853 54.9641 25.0853 54.9641 24.993C55.0563 24.4397 55.1485 23.9786 55.2407 23.5175V23.4253H54.7796C54.6874 23.6097 54.5952 23.6097 54.3185 23.6097C53.8574 23.6097 52.4741 23.7019 51.4596 23.7019H49.5229C49.3385 23.7019 49.2463 23.7019 49.2463 23.4253C49.2463 23.4253 49.2463 23.333 49.1541 23.333H48.7852C48.7852 23.333 48.6929 23.333 48.6929 23.4253C48.6929 23.7942 48.6007 24.3475 48.5085 24.9008V24.993H48.9696V24.9008C49.3385 24.4397 49.4307 24.3475 49.7996 24.3475ZM60.4974 24.2553C60.5896 24.4397 60.6818 24.6242 60.6818 24.993C60.6818 25.4542 60.774 26.5608 60.774 27.483C60.774 28.4053 60.774 28.8664 60.5896 29.0508C60.4974 29.143 60.3129 29.2353 59.8518 29.2353V29.6964C59.8518 29.6964 60.4974 29.6042 61.1429 29.6042C61.7885 29.6042 62.434 29.6042 62.8952 29.6964V29.3275C62.8952 29.3275 62.8952 29.2353 62.8029 29.2353C62.3418 29.143 62.1574 29.0508 62.0652 28.8664C61.9729 28.6819 61.8807 28.4975 61.8807 27.2064V25.6386C61.8807 24.5319 61.9729 24.3475 62.0652 24.2553C62.2496 24.0708 62.2496 24.0708 62.8952 23.9786V23.6097C62.8952 23.6097 62.8952 23.5175 62.8029 23.5175H61.3274C60.6818 23.5175 60.1285 23.5175 59.6674 23.4253V23.7942C59.6674 23.7942 59.6674 23.8864 59.7596 23.8864C60.1285 23.9786 60.4052 24.0708 60.4974 24.2553ZM74.9763 23.5175H72.3018V23.8864C72.3018 23.8864 72.3018 23.9786 72.3941 23.9786C72.9474 24.0708 73.1318 24.163 73.224 24.3475C73.3163 24.5319 73.3163 24.7164 73.3163 26.0075V27.6675C73.1318 27.3908 72.7629 27.0219 72.3941 26.653L72.0252 26.2842C70.5496 24.7164 69.8118 23.7942 69.6274 23.5175H67.2296C67.2296 23.5175 67.1374 23.5175 67.1374 23.6097V23.9786C67.1374 23.9786 67.1374 24.0708 67.2296 24.0708C67.7829 24.0708 68.0596 24.2553 68.4285 24.5319V27.5753C68.4285 28.6819 68.4285 28.8664 68.3363 29.0508C68.2441 29.2353 68.0596 29.3275 67.4141 29.4197C67.4141 29.4197 67.3218 29.4197 67.3218 29.5119V29.8808C67.7829 29.8808 68.2441 29.7886 68.7974 29.7886C69.4429 29.7886 69.8118 29.7886 70.1807 29.8808V29.5119C70.1807 29.5119 70.1807 29.4197 70.0885 29.4197C69.4429 29.3275 69.1663 29.2353 69.074 29.0508C68.9818 28.8664 68.9818 28.7742 68.9818 27.3908V25.2697C69.2585 25.6386 70.2729 26.7453 71.0107 27.483L71.1952 27.6675C72.3018 28.8664 73.0396 29.6964 73.3163 30.0653L73.5929 29.8808V29.7886C73.5929 29.7886 73.6852 26.3764 73.6852 26.1919C73.6852 25.0853 73.6852 24.7164 73.7774 24.5319C73.8696 24.3475 74.1463 24.163 74.6996 24.163C74.6996 24.163 74.7918 24.163 74.7918 24.0708L74.9763 23.5175C75.0685 23.5175 75.0685 23.5175 74.9763 23.5175ZM16.3229 34.6764C15.6774 34.7686 15.0318 34.7686 14.7552 34.7686H14.3863C14.3863 34.7686 13.8329 35.8753 13.2796 37.0742C13.0029 37.6275 12.7263 38.1808 12.5418 38.6419C12.4496 38.9186 12.2652 39.1953 12.2652 39.2875C12.1729 39.0108 11.9885 38.6419 11.7118 38.1808C11.5274 37.9042 11.4352 37.6275 11.2507 37.2586C10.974 36.7053 10.7896 36.3364 10.6052 36.0597C10.2363 35.4142 10.1441 35.1375 10.0518 34.8608H9.4985C9.03739 34.8608 8.02294 34.7686 8.02294 34.7686V35.1375C8.02294 35.1375 8.02294 35.2297 8.11516 35.2297C8.48405 35.3219 8.76072 35.3219 8.85294 35.4142C8.94516 35.5064 9.03738 35.5986 9.22183 35.9675V38.5497C9.22183 39.8408 9.22183 40.0253 9.12961 40.2097C9.03738 40.3942 8.94516 40.4864 8.29961 40.5786V41.0397H8.39183C8.76072 40.9475 8.94516 40.9475 9.40627 40.9475C9.9596 40.9475 10.6974 41.0397 10.8818 41.0397V40.6708C10.8818 40.6708 10.8818 40.5786 10.7896 40.5786C10.144 40.4864 10.0518 40.3942 9.95961 40.2097C9.86739 40.0253 9.86738 39.8408 9.86738 39.7486V37.2586C10.0518 37.5353 10.3285 38.1808 10.7896 39.0108C11.3429 40.1175 11.7118 40.8553 11.8963 41.1319H12.4496C12.6341 40.5786 12.8185 40.2097 13.464 38.8264L13.9252 37.9042C14.1096 37.443 14.294 37.1664 14.3863 36.9819V38.6419C14.3863 39.6564 14.3863 40.0253 14.2941 40.2097C14.2018 40.3942 14.1096 40.5786 13.5563 40.5786C13.5563 40.5786 13.464 40.5786 13.464 40.6708V41.0397C13.9252 40.9475 14.3863 40.9475 14.8474 40.9475C15.2163 40.9475 16.4152 41.0397 16.4152 41.0397V40.6708C16.4152 40.6708 16.4152 40.5786 16.3229 40.5786C15.7696 40.4864 15.5852 40.3942 15.4929 40.1175C15.4007 39.8408 15.4007 39.5642 15.4007 38.5497V36.9819C15.4007 36.0597 15.4007 35.783 15.4929 35.6908C15.5852 35.5064 15.7696 35.4142 16.3229 35.3219C16.3229 35.3219 16.4152 35.3219 16.4152 35.2297L16.3229 34.6764C16.4152 34.7686 16.4152 34.7686 16.3229 34.6764ZM23.2396 34.7686C21.3952 34.7686 19.9196 36.1519 19.9196 37.9042C19.9196 39.6564 21.3029 40.9475 23.2396 40.9475C25.084 40.9475 26.5596 39.5642 26.5596 37.7197C26.5596 36.0597 25.1763 34.7686 23.2396 34.7686ZM23.3318 40.5786C22.2252 40.5786 21.3029 39.3797 21.3029 37.7197C21.3029 36.2442 22.0407 35.2297 23.2396 35.2297C24.3463 35.2297 25.1763 36.4286 25.1763 37.9964C25.1763 39.4719 24.3463 40.5786 23.3318 40.5786ZM35.7818 40.1175C35.3207 39.6564 35.0441 39.1953 34.4907 38.273L34.214 37.8119C34.9518 37.6275 35.4129 37.1664 35.4129 36.5208C35.4129 35.4142 34.4907 34.7686 32.9229 34.7686H32.0007C30.9863 34.7686 30.3407 34.6764 30.2485 34.6764V35.0453C30.2485 35.0453 30.2485 35.1375 30.3407 35.1375C30.7096 35.2297 30.894 35.2297 31.0785 35.3219C31.3552 35.5986 31.3552 35.9675 31.3552 38.4575C31.3552 39.5642 31.3552 39.933 31.2629 40.1175C31.1707 40.3019 30.9863 40.3019 30.4329 40.3942C30.4329 40.3942 30.3407 40.3942 30.3407 40.4864V40.8553C30.8018 40.763 31.3552 40.763 31.9085 40.763C32.4618 40.763 33.1074 40.763 33.384 40.8553H33.5685C33.5685 40.8553 33.6607 40.8553 33.6607 40.763V40.3942C33.6607 40.3942 33.6607 40.3019 33.5685 40.3019C32.7385 40.2097 32.6463 40.0253 32.5541 39.6564C32.5541 39.3797 32.4618 38.9186 32.4618 38.1808V37.9964H32.6463C33.0152 37.9964 33.1074 38.1808 33.2918 38.5497C33.2918 38.6419 33.384 38.6419 33.384 38.7342C33.384 38.8264 33.4763 38.8264 33.4763 38.9186C33.7529 39.3797 34.3063 40.3019 34.7674 40.5786C35.044 40.763 35.5052 40.8553 36.1507 40.8553H36.7963C36.7963 40.8553 36.8885 40.8553 36.8885 40.763V40.5786C36.8885 40.5786 36.8885 40.4864 36.7963 40.4864C36.4274 40.5786 36.1507 40.3942 35.7818 40.1175ZM34.1218 36.5208C34.1218 37.2586 33.6607 37.7197 32.8307 37.7197H32.4618V35.2297H32.7385C33.5685 35.2297 34.1218 35.783 34.1218 36.5208ZM45.6496 39.3797H45.2807C45.2807 39.4719 45.2807 39.4719 45.1885 39.5642C45.0963 39.8408 45.0041 40.0253 44.7274 40.2097C44.4507 40.3019 44.174 40.3942 43.7129 40.3942C43.1596 40.3942 42.8829 40.3019 42.6985 40.1175C42.5141 39.933 42.5141 39.8408 42.5141 38.9186V37.9964H43.0674C43.8052 37.9964 43.9896 38.0886 44.0818 38.273C44.1741 38.4575 44.2663 38.4575 44.2663 38.8264L44.5429 38.6419V38.5497C44.4507 38.1808 44.4507 37.9964 44.4507 37.5353V36.7975H43.9896C43.8974 37.0742 43.8052 37.2586 43.7129 37.2586C43.6207 37.3508 43.2518 37.3508 42.6985 37.3508H42.3296V35.2297H43.3441C44.3585 35.2297 44.5429 35.4142 44.7274 36.1519H45.0963V34.7686H42.7907C41.2229 34.7686 40.854 34.7686 40.4852 34.6764H40.3007V35.0453C40.3007 35.0453 40.3007 35.1375 40.3929 35.1375C40.7618 35.2297 40.9463 35.2297 41.1307 35.4142C41.3152 35.5986 41.3152 35.783 41.3152 36.1519V39.4719C41.3152 39.933 41.2229 40.1175 41.2229 40.2097C41.1307 40.3942 40.9463 40.3942 40.5774 40.4864V40.9475H40.6696C40.8541 40.9475 41.3152 40.8553 41.8685 40.8553H45.4652C45.4652 40.8553 45.5574 40.8553 45.5574 40.763C45.5574 40.5786 45.5574 40.4864 45.6496 40.1175V39.3797C45.7418 39.4719 45.7418 39.4719 45.6496 39.3797ZM55.9785 34.7686H55.5174C55.4252 34.953 55.3329 34.953 55.0563 34.953C54.5029 34.953 53.1196 35.0453 52.1974 35.0453H50.2607C50.0763 35.0453 49.984 35.0453 49.984 34.7686C49.984 34.7686 49.9841 34.6764 49.8918 34.6764H49.5229C49.5229 34.6764 49.4307 34.6764 49.4307 34.7686C49.4307 35.1375 49.3385 35.6908 49.2463 36.2442V36.3364H49.7074V36.2442C49.8918 35.783 49.9841 35.6908 50.3529 35.5986H52.0129V38.8264C52.0129 39.2875 52.0129 39.933 51.8285 40.1175C51.7363 40.3019 51.5518 40.3019 51.2752 40.3942H51.0907V40.8553C51.4596 40.8553 52.1052 40.763 52.5663 40.763C53.0274 40.763 53.5807 40.763 54.134 40.8553V40.4864C54.134 40.4864 54.1341 40.3942 54.0418 40.3942C53.4885 40.3019 53.304 40.2097 53.2118 39.8408C53.1196 39.5642 53.1196 39.2875 53.1196 38.3653V35.5064H54.134C54.6874 35.5064 54.7796 35.5064 54.8718 35.5986C54.9641 35.6908 54.9641 35.783 54.9641 36.2442C54.9641 36.2442 54.964 36.3364 55.0563 36.3364H55.4252C55.4252 36.3364 55.5174 36.3364 55.5174 36.2442C55.794 35.783 55.8863 35.3219 55.9785 34.7686ZM66.584 34.7686C66.2152 34.7686 65.8463 34.8608 65.2007 34.8608H64.0018V35.2297C64.0018 35.2297 64.0018 35.3219 64.0941 35.3219C64.8318 35.4142 64.9241 35.5064 65.0163 35.8753C65.1085 36.1519 65.1085 37.2586 65.1085 38.0886C65.1085 39.103 65.0163 39.4719 64.7396 39.8408C64.4629 40.2097 63.9096 40.4864 63.2641 40.4864C62.7107 40.4864 62.3418 40.3019 61.9729 40.0253C61.604 39.6564 61.5118 39.3797 61.5118 37.7197V36.3364C61.5118 35.5064 61.6963 35.4142 62.6185 35.3219C62.6185 35.3219 62.7107 35.3219 62.7107 35.2297V34.8608C62.1574 34.953 61.7885 34.953 61.2352 34.953C60.4974 34.953 59.7596 34.953 59.3907 34.8608H59.2985V35.3219C59.8518 35.4142 60.0363 35.5064 60.1285 35.783C60.2207 36.0597 60.2207 36.3364 60.2207 38.4575V38.6419C60.2207 39.3797 60.2207 39.8408 60.774 40.3942C61.2352 40.9475 61.9729 41.1319 62.9874 41.1319C63.9096 41.1319 64.5552 40.8553 65.0163 40.3019C65.3852 39.933 65.5696 39.4719 65.5696 38.8264C65.5696 38.4575 65.6618 36.3364 65.6618 36.2442C65.6618 35.5064 65.7541 35.4142 66.6763 35.2297V35.1375L66.584 34.7686ZM73.1318 37.6275C72.9474 37.5353 72.7629 37.443 72.4863 37.3508L72.3018 37.2586C71.8407 37.0742 71.3796 36.8897 71.3796 36.2442C71.3796 35.6908 71.8407 35.2297 72.4863 35.2297C73.1318 35.2297 73.5007 35.5986 73.6852 36.3364H74.1463V34.953C73.5929 34.6764 73.0396 34.5842 72.5785 34.5842C71.2874 34.5842 70.3652 35.3219 70.3652 36.3364C70.3652 36.9819 70.734 37.443 71.3796 37.8119C71.564 37.9042 71.8407 37.9964 72.0252 38.0886C72.4863 38.273 72.8552 38.4575 73.1318 38.6419C73.3163 38.8264 73.3163 39.0108 73.3163 39.1953C73.3163 39.7486 72.7629 40.2097 72.1174 40.2097C71.7485 40.2097 71.3796 40.0253 71.1029 39.8408C70.8263 39.5642 70.7341 39.3797 70.6418 38.8264C70.6418 38.8264 70.6418 38.7342 70.5496 38.7342H70.0885C70.0885 38.7342 69.9963 38.7342 69.9963 38.8264V40.3019C70.6418 40.6708 71.2874 40.763 71.9329 40.763C73.3163 40.763 74.3307 39.933 74.3307 38.9186C74.3307 38.3653 73.8696 37.9964 73.1318 37.6275Z" fill="#12151E"/>
<path d="M25.5461 61.4744L25.0849 61.1055L24.9927 61.1977L25.0849 61.2899V61.3821L24.6238 61.9355C24.6238 62.0277 24.5316 62.0277 24.5316 62.0277H24.4394L24.3472 62.1199L25.1772 62.7655L25.4538 62.4888L25.3616 62.3966C25.2694 62.4888 25.2694 62.4888 25.1772 62.4888C25.0849 62.4888 25.0849 62.4888 24.9927 62.3966C24.9005 62.3966 24.9005 62.3044 24.9005 62.3044L24.9927 62.2121L25.3616 61.6588L25.4538 61.5666H25.5461V61.4744C25.6383 61.4744 25.6383 61.4744 25.5461 61.4744ZM26.6527 63.2266V63.0421L26.7449 62.0277H26.6527L25.9149 62.6732C25.8227 62.7655 25.7305 62.7655 25.7305 62.7655V62.8577L26.0994 63.0421V62.9499H26.0072L26.0994 62.8577L26.3761 63.0421V63.2266H26.2838V63.3188L26.8372 63.5955L26.6527 63.2266C26.7449 63.3188 26.7449 63.3188 26.6527 63.2266ZM26.2838 62.7655L26.0994 62.6732L26.2838 62.4888V62.7655ZM27.9438 62.581L27.4827 62.3966V62.4888C27.5749 62.4888 27.5749 62.4888 27.5749 62.581V62.6732L27.3905 63.3188C27.3905 63.411 27.3905 63.411 27.2983 63.411H27.2061V63.5032L27.7594 63.6877C27.8516 63.6877 27.9438 63.7799 28.0361 63.7799H28.1283C28.2205 63.7799 28.3127 63.6877 28.3127 63.5955V63.3188C28.3127 63.2266 28.2205 63.2266 28.1283 63.1344H28.3127C28.4049 63.1344 28.4049 63.0421 28.4049 62.9499V62.6732C28.2205 62.6732 28.1283 62.6732 27.9438 62.581ZM27.8516 63.5032C27.8516 63.5955 27.7594 63.5955 27.7594 63.6877H27.5749V63.5955L27.6672 63.3188C27.7594 63.3188 27.7594 63.3188 27.7594 63.411V63.5032C27.8516 63.3188 27.8516 63.411 27.8516 63.5032ZM27.9438 62.9499C27.9438 63.0421 27.8516 63.0421 27.8516 63.0421H27.7594L27.8516 62.6732H27.9438V62.7655C28.0361 62.8577 27.9438 62.8577 27.9438 62.9499ZM29.5116 62.9499H29.1427C29.0505 62.9499 28.9583 63.0421 28.8661 63.1344C28.7738 63.2266 28.7738 63.3188 28.6816 63.411V63.6877C28.6816 63.7799 28.7738 63.8721 28.8661 63.9644C28.9583 64.0566 29.0505 64.0566 29.2349 64.1488H29.4194C29.5116 64.1488 29.6961 64.1488 29.7883 64.0566C29.8805 63.9644 29.9727 63.7799 30.0649 63.6877C30.0649 63.5032 30.0649 63.3188 29.9727 63.2266C29.8805 63.1344 29.6961 63.0421 29.5116 62.9499ZM29.6961 63.5955C29.6961 63.7799 29.6038 63.8721 29.6038 63.9644C29.5116 64.0566 29.5116 64.0566 29.4194 64.0566C29.3272 64.0566 29.2349 63.9644 29.2349 63.8721V63.5032C29.2349 63.3188 29.3272 63.2266 29.3272 63.1344C29.3272 63.0421 29.4194 63.0421 29.5116 63.0421H29.6038C29.6961 63.0421 29.7883 63.1344 29.7883 63.2266C29.6961 63.3188 29.6961 63.5032 29.6961 63.5955ZM31.6327 64.241C31.6327 64.241 31.5405 64.1488 31.5405 64.0566C31.4483 63.9644 31.4483 63.8721 31.3561 63.7799C31.5405 63.6877 31.5405 63.5955 31.5405 63.5032V63.3188C31.5405 63.2266 31.4483 63.2266 31.4483 63.2266C31.3561 63.2266 31.3561 63.1344 31.2638 63.1344H30.4338V63.2266H30.5261V64.0566H30.4338V64.1488H31.0794V64.0566H30.9872V63.6877H31.0794C31.0794 63.6877 31.1716 63.7799 31.1716 63.8721C31.2638 64.0566 31.3561 64.1488 31.3561 64.1488H31.7249V64.0566C31.7249 64.241 31.7249 64.241 31.6327 64.241C31.7249 64.241 31.7249 64.241 31.6327 64.241ZM31.1716 63.5955C31.1716 63.6877 31.1716 63.6877 31.1716 63.5955C31.0794 63.6877 30.9872 63.6877 30.8949 63.6877V63.3188C30.9872 63.3188 31.0794 63.3188 31.0794 63.411V63.5955H31.1716ZM33.2005 63.8721H33.1083C33.1083 63.9644 33.1083 63.9644 33.0161 64.0566L32.9238 64.1488H32.6472V63.7799H32.8316V63.8721H32.9238V63.5032H32.8316V63.5955H32.6472V63.2266H32.9238L33.0161 63.3188C33.0161 63.3188 33.0161 63.411 33.1083 63.411H33.2005V63.1344L32.1861 63.2266V63.3188H32.2783V64.1488H32.1861V64.241L33.2005 64.3332V63.8721ZM39.9327 62.7655H39.8405V62.9499C39.8405 62.9499 39.8405 63.0421 39.7483 63.0421C39.7483 63.0421 39.6561 63.0421 39.5638 63.1344H39.4716V62.7655H39.6561V62.8577H39.7483L39.6561 62.4888H39.5638V62.581H39.3794L39.2872 62.2121H39.6561L39.7483 62.3044H39.8405L39.7483 62.0277L38.7338 62.1199V62.2121H38.8261V62.3044L38.9183 62.9499V63.0421H38.8261V63.1344L39.8405 62.9499L39.9327 62.7655ZM40.3938 61.9355C40.3016 61.9355 40.3016 61.9355 40.3938 61.9355V62.3044H40.4861V62.2121C40.4861 62.2121 40.4861 62.1199 40.5783 62.1199H40.7627V63.0421H40.6705V63.1344H41.3161V63.0421H41.2238V62.1199H41.5005C41.5005 62.1199 41.5927 62.2121 41.5927 62.3044H41.6849V61.9355H40.3938ZM43.8983 62.3044C43.7138 62.3044 43.6216 62.2121 43.5294 62.2121C43.3449 62.2121 43.1605 62.2121 43.0683 62.3044C42.9761 62.3966 42.8838 62.581 42.7916 62.6732C42.7916 62.8577 42.7916 62.9499 42.8838 63.1344C42.9761 63.3188 43.0683 63.411 43.2527 63.411C43.4372 63.411 43.5294 63.411 43.6216 63.3188V63.411H43.7138L43.8061 62.9499H43.7138C43.7138 63.0421 43.6216 63.1344 43.5294 63.2266C43.4372 63.2266 43.3449 63.3188 43.3449 63.2266C43.2527 63.2266 43.2527 63.2266 43.1605 63.1344C43.1605 63.1344 43.0683 63.0421 43.0683 62.9499V62.6732C43.0683 62.4888 43.1605 62.3966 43.1605 62.3044C43.2527 62.2121 43.2527 62.2121 43.3449 62.2121C43.4372 62.2121 43.5294 62.3044 43.5294 62.3044C43.6216 62.3966 43.6216 62.4888 43.6216 62.581H43.7138L43.8061 62.1199C43.9905 62.3044 43.9905 62.3044 43.8983 62.3044ZM45.0972 62.4888H44.7283C44.6361 62.4888 44.5438 62.581 44.4516 62.6732C44.3594 62.7655 44.3594 62.8577 44.2672 62.9499V63.2266C44.2672 63.3188 44.3594 63.411 44.4516 63.5032C44.5438 63.5955 44.6361 63.5955 44.8205 63.6877H45.0049C45.0972 63.6877 45.2816 63.6877 45.3738 63.5955C45.5583 63.5032 45.6505 63.411 45.6505 63.2266C45.6505 63.0421 45.6505 62.8577 45.5583 62.7655C45.4661 62.6732 45.3738 62.581 45.0972 62.4888ZM45.2816 63.2266C45.2816 63.411 45.1894 63.5032 45.0972 63.5955C45.0049 63.6877 45.0049 63.6877 44.9127 63.6877C44.8205 63.6877 44.7283 63.5955 44.7283 63.5032V63.1344C44.7283 62.9499 44.8205 62.8577 44.8205 62.7655C44.8205 62.7655 44.9127 62.6732 45.0049 62.6732H45.0972C45.1894 62.6732 45.2816 62.7655 45.2816 62.8577V63.2266ZM47.0338 62.9499V63.0421C47.0338 63.0421 47.1261 63.0421 47.1261 63.1344V63.2266L47.0338 63.5955L46.5727 62.8577L46.2038 62.7655V62.8577C46.2961 62.8577 46.2961 62.9499 46.2961 63.0421L46.2038 63.5955V63.6877H46.0194V63.7799L46.4805 63.8721V63.7799C46.4805 63.7799 46.3883 63.7799 46.3883 63.6877V63.5032L46.4805 63.0421L47.0338 63.9644H47.1261L47.3105 63.0421V62.9499H47.4949V62.8577L47.0338 62.9499ZM48.5094 63.6877C48.5094 63.6877 48.4172 63.5955 48.3249 63.5955C48.2327 63.5032 48.1405 63.5032 48.1405 63.5032L48.0483 63.411V63.2266H48.1405C48.2327 63.2266 48.2327 63.2266 48.2327 63.3188C48.2327 63.411 48.3249 63.411 48.3249 63.5032H48.4172V63.1344H48.3249C48.3249 63.1344 48.2327 63.1344 48.2327 63.0421L48.1405 62.9499C48.0483 62.9499 47.9561 62.9499 47.8638 63.0421C47.7716 63.1344 47.7716 63.2266 47.6794 63.3188V63.5032C47.6794 63.5955 47.7716 63.5955 47.7716 63.6877C47.7716 63.6877 47.8638 63.7799 48.0483 63.8721L48.1405 63.9644V64.1488H48.0483C47.9561 64.1488 47.9561 64.1488 47.8638 64.0566C47.7716 63.9644 47.7716 63.9644 47.7716 63.7799H47.6794V64.1488H47.7716V64.0566L47.8638 64.1488C47.9561 64.1488 47.9561 64.241 48.0483 64.241H48.1405C48.2327 64.241 48.3249 64.241 48.4172 64.1488C48.5094 64.0566 48.5094 63.9644 48.6016 63.8721V63.6877C48.6016 63.7799 48.6016 63.6877 48.5094 63.6877ZM49.0627 63.1344V63.5032H49.1549V63.411C49.1549 63.411 49.1549 63.3188 49.2472 63.3188H49.4316V64.241H49.3394V64.3332H49.9849V64.241H49.8927V63.3188H50.1694C50.1694 63.3188 50.2616 63.411 50.2616 63.5032H50.3538V63.1344H49.0627ZM51.7372 64.1488C51.645 64.1488 51.645 64.1488 51.7372 64.1488C51.645 64.1488 51.6449 64.0566 51.5527 63.9644L51.0916 63.1344H50.9994L50.7227 64.0566C50.7227 64.1488 50.6305 64.241 50.5383 64.241V64.3332H50.9072V64.241H50.815V64.1488H51.1838V64.241H51.0916V64.3332H51.6449L51.7372 64.1488ZM50.9072 63.8721L50.9994 63.5955L51.0916 63.8721H50.9072ZM53.0283 63.0421L53.1205 62.9499V62.8577L52.7516 62.9499V63.0421C52.8438 63.0421 52.9361 63.0421 52.9361 63.1344L53.0283 63.5032L52.2905 62.9499L51.9216 63.0421V63.1344C51.9216 63.1344 52.0138 63.1344 52.0138 63.2266L52.1061 63.7799V63.9644H52.0138V64.0566L52.4749 63.9644V63.8721H52.3827C52.3827 63.8721 52.2905 63.8721 52.2905 63.7799L52.1983 63.3188L53.0283 63.9644H53.1205L52.9361 63.0421H53.0283ZM54.6883 63.411H54.5961L54.5038 63.3188L54.2272 62.581H54.5038L54.5961 62.6732H54.6883L54.5961 62.3966L53.4894 62.7655L53.5816 63.0421H53.6738V62.8577C53.6738 62.8577 53.7661 62.8577 53.7661 62.7655H53.8583L54.1349 63.5032V63.5955L54.0427 63.6877V63.7799L54.6883 63.5955V63.411ZM55.9794 62.8577H55.7949L55.7027 62.7655L55.4261 62.1199V62.0277L55.5183 61.9355V61.8432L54.965 62.1199V62.2121H55.0572L55.1494 62.3044L55.4261 62.9499V63.0421L55.3338 63.1344V63.2266L55.8872 62.9499C55.9794 62.9499 55.9794 62.9499 55.9794 62.8577ZM57.2705 61.9355H57.1783C57.1783 61.9355 57.0861 61.9355 56.9938 61.8432L56.1638 61.3821L56.0716 61.4744L56.3483 62.3966V62.6732L56.4405 62.7655L56.7172 62.581L56.6249 62.4888H56.5327V62.3966L56.8094 62.2121L56.9016 62.3044L56.8094 62.3966L56.9016 62.4888L57.3627 62.1199C57.3627 62.0277 57.3627 62.0277 57.2705 61.9355ZM56.4405 62.2121L56.3483 61.9355L56.6249 62.1199L56.4405 62.2121Z" fill="#12151E"/>
<path d="M59.2073 60.0909C58.8384 58.2464 57.3629 55.9409 57.2707 55.8486C57.2707 55.8486 55.9796 54.2809 53.5818 55.3875C53.4896 55.3875 51.7373 56.2175 51.4607 57.6009V57.7853L52.4751 60.1831C52.4751 60.2753 52.5673 60.2753 52.6596 60.3675C52.7518 60.3675 52.844 60.3675 52.844 60.2753C52.844 60.2753 53.674 59.3531 54.9651 59.1686C55.334 59.0764 55.7029 59.0764 56.0718 59.1686C54.3196 60.9209 50.2618 62.1197 45.6507 61.1053L44.544 58.7075L44.7285 58.6153C44.8207 58.6153 44.8207 58.5231 44.8207 58.5231V58.3386L42.884 54.0042C43.0685 53.6353 43.2529 53.1742 43.2529 52.7131C43.2529 51.3298 42.1462 50.1309 40.6707 50.1309C39.2873 50.1309 38.0885 51.2375 38.0885 52.7131C38.0885 53.1742 38.1807 53.6353 38.4573 54.0042L36.5207 58.3386V58.5231C36.5207 58.6153 36.6129 58.6153 36.6129 58.6153L36.7973 58.7075L35.6907 61.1975C31.1718 62.1197 27.2985 60.9209 25.6385 59.1686H26.7451C28.0362 59.4453 28.8662 60.2753 28.8662 60.2753C28.9585 60.3675 28.9585 60.3675 29.0507 60.3675C29.1429 60.3675 29.2351 60.2753 29.2351 60.1831L30.2496 57.7853V57.6009C29.9729 56.2175 28.2207 55.3875 28.1285 55.3875C25.7307 54.2809 24.4396 55.8486 24.4396 55.8486C24.3473 55.9409 22.8718 58.2464 22.5029 60.0909C22.0418 62.212 23.5173 64.0564 26.284 65.1631C27.944 65.8086 29.5118 65.9931 30.9873 65.9931C31.8173 65.9931 32.6473 65.9009 33.4773 65.8086L31.5407 70.2353C31.5407 70.3275 30.6184 72.0797 30.6184 74.5697C30.6184 74.662 30.7107 74.7542 30.8029 74.7542H30.8951C30.9873 74.7542 30.9873 74.7542 31.0796 74.662C32.7396 73.002 33.4773 71.0653 33.4773 71.0653L36.0596 65.2553L37.1662 64.9786C37.4429 64.8864 37.7196 64.8864 37.904 64.7942C38.9185 64.6097 39.8407 64.4253 40.6707 64.3331C41.5007 64.3331 42.4229 64.5175 43.4373 64.7942C43.714 64.8864 43.9907 64.8864 44.1751 64.9786C44.4518 65.0709 44.6362 65.0709 44.9129 65.1631L47.4951 71.0653C47.4951 71.1575 48.2329 73.0942 49.8929 74.662C49.8929 74.662 49.9851 74.7542 50.0773 74.7542H50.1696C50.2618 74.7542 50.354 74.662 50.354 74.5697C50.4462 72.0797 49.4318 70.3275 49.4318 70.2353L47.4029 65.7164C48.3251 65.9009 49.2473 65.9931 50.2618 65.9931C51.8296 65.9931 53.3973 65.7164 54.9651 65.1631C58.2851 64.0564 59.6684 62.212 59.2073 60.0909ZM55.0573 58.6153C54.0429 58.7997 53.3051 59.3531 52.9362 59.6298L52.1062 57.6009C52.3829 56.4942 53.9507 55.7564 53.9507 55.7564C55.8873 54.9264 56.8096 55.8486 56.994 56.0331C57.4551 57.0475 57.0862 57.8775 56.7173 58.5231C56.0718 58.5231 55.5184 58.5231 55.0573 58.6153ZM45.1896 60.8286C45.0051 60.7364 44.8207 60.7364 44.6362 60.6442C44.3596 60.552 44.0829 60.4598 43.8062 60.4598L43.2529 59.1686L44.2673 58.7997L45.1896 60.8286ZM44.3596 58.1542L42.6073 58.9842V58.892L41.1318 55.4798L41.224 55.2031C41.7773 55.1109 42.3307 54.8342 42.6996 54.4653L44.3596 58.1542ZM43.1607 60.3675C42.7918 60.2753 42.3307 60.2753 41.9618 60.1831H40.9473C40.1173 60.1831 39.3796 60.2753 38.5496 60.4598L39.0107 59.4453H39.1951C39.2873 59.4453 39.3796 59.3531 39.3796 59.2609L40.8551 55.9409L42.3307 59.2609C42.3307 59.3531 42.4229 59.4453 42.5151 59.4453H42.6996L43.1607 60.3675ZM40.8551 50.4997C41.9618 50.4997 42.884 51.422 42.884 52.5286C42.884 52.8053 42.884 52.9898 42.7918 53.1742C42.7918 53.2664 42.6996 53.3586 42.6996 53.4509C42.6073 53.5431 42.6073 53.6353 42.5151 53.7275C42.2385 54.0964 41.9618 54.2809 41.5007 54.4653C41.4085 54.4653 41.3162 54.5575 41.224 54.5575H40.4862C40.394 54.5575 40.3018 54.5575 40.2096 54.4653C39.8407 54.3731 39.4718 54.0964 39.1951 53.7275C39.1029 53.6353 39.1029 53.5431 39.0107 53.4509C38.9185 53.3586 38.9184 53.2664 38.9184 53.1742C38.8262 52.9898 38.8262 52.7131 38.8262 52.5286C38.8262 51.422 39.7485 50.4997 40.8551 50.4997ZM37.3507 58.1542L39.0107 54.3731C39.3796 54.742 39.9329 55.0186 40.4862 55.1109H40.7629L40.6707 55.3875L39.1951 58.7997V58.892L37.3507 58.1542ZM25.1773 56.1253C25.3618 55.9409 26.284 55.0186 28.2207 55.8486C28.2207 55.8486 29.7885 56.5864 30.0651 57.6931L29.2351 59.722C28.8662 59.3531 28.1285 58.892 27.114 58.7075C26.5607 58.6153 26.0996 58.6153 25.5462 58.7075C25.0851 57.9698 24.7162 57.1397 25.1773 56.1253ZM26.7451 64.702C24.1629 63.6875 22.964 62.0275 23.3329 60.1831C23.5173 59.2609 24.0707 58.1542 24.4396 57.3242C24.4396 57.5086 24.4396 57.6931 24.5318 57.8775C24.624 58.1542 24.7162 58.5231 24.9929 58.7997C24.9929 58.892 25.0851 58.892 25.1773 58.9842C25.2696 59.0764 25.2696 59.1686 25.3618 59.1686L25.454 59.2609C27.114 61.1975 31.1718 62.4886 35.7829 61.6586L34.1229 65.3475C31.8173 65.7164 29.3273 65.7164 26.7451 64.702ZM36.0596 64.8864L35.9673 65.1631V65.2553L35.8751 65.4397V65.532L33.4773 71.0653C33.4773 71.0653 32.924 72.6331 31.6329 74.1086C31.7251 72.0797 32.4629 70.6964 32.4629 70.6042L34.584 65.8086L34.6762 65.532L34.7684 65.2553L36.4285 61.5664L36.5207 61.2897L36.6129 61.0131L37.5351 58.7997L38.5496 59.2609L37.9962 60.6442L37.904 60.9209V61.0131L37.8118 61.2897L36.0596 64.8864ZM49.4318 70.6042C49.4318 70.6042 50.1696 71.9875 50.2618 74.0164C48.9707 72.5409 48.4173 71.0653 48.4173 70.9731L45.9273 65.4397L47.3107 65.7164L49.4318 70.6042ZM55.334 64.702C52.6596 65.7164 50.0773 65.6242 47.6796 65.2553C47.5873 65.2553 47.4951 65.2553 47.4029 65.1631C47.3107 65.1631 47.2185 65.1631 47.1262 65.0709H46.9418C46.8496 65.0709 46.7573 65.0709 46.6651 64.9786C46.3885 64.8864 46.1118 64.8864 45.8351 64.7942C45.7429 64.7942 45.6507 64.7942 45.5584 64.702C45.4662 64.702 45.374 64.6098 45.2818 64.6098C45.1896 64.6098 45.0051 64.5175 44.9129 64.5175C44.6362 64.4253 44.3596 64.4253 44.0829 64.3331C43.0685 64.0564 42.1462 63.872 41.3162 63.872H41.224C40.394 63.872 39.4718 64.0564 38.3651 64.3331C38.1807 64.3331 38.0885 64.4253 37.904 64.4253C37.5351 64.5175 37.1662 64.6098 36.8896 64.6098L38.5496 60.8286C39.4718 60.552 40.3018 60.4598 41.3162 60.4598H41.4084C42.1462 60.4598 42.884 60.552 43.714 60.7364C43.8062 60.7364 43.8984 60.7364 43.9907 60.8286C44.0829 60.8286 44.1751 60.9209 44.2673 60.9209C44.3596 60.9209 44.544 61.0131 44.6362 61.0131C44.9129 61.1053 45.2818 61.1975 45.5584 61.2897C45.6507 61.2897 45.7429 61.2898 45.8351 61.382C45.9273 61.382 46.0196 61.382 46.1118 61.4742C50.9073 62.3964 55.1496 61.1053 56.8096 59.1686L56.9018 59.0764C56.994 58.9842 56.994 58.892 57.0862 58.892L57.2707 58.7075C57.4551 58.4309 57.6396 58.062 57.7318 57.7853C57.7318 57.6009 57.824 57.4164 57.824 57.232C58.2851 58.062 58.7462 59.1686 58.9307 60.0909C59.1151 62.0275 57.824 63.6875 55.334 64.702Z" fill="#12151E"/>
</svg>
