<svg width="868" height="450" viewBox="0 0 868 450" fill="none" xmlns="http://www.w3.org/2000/svg">
<path d="M49.3923 29.659L49.6089 31.1433L49.6089 31.1433L49.3923 29.659ZM175.12 96.1146L173.651 96.4171L175.12 96.1146ZM62.2555 167.554L62.2211 166.055C62.1797 166.056 62.1383 166.058 62.097 166.063L62.2555 167.554ZM20.7612 254.777L21.9398 253.85L20.7612 254.777ZM157.692 275.13L157.249 273.697C157.09 273.746 156.941 273.821 156.808 273.918L157.692 275.13ZM260.183 339.508L258.727 339.867L260.183 339.508ZM464.335 366.921L464.818 368.342C464.838 368.335 464.859 368.327 464.879 368.319L464.335 366.921ZM600.437 396.411L598.981 396.773L600.437 396.411ZM688.819 429.639L689.996 430.569L688.819 429.639ZM711.641 281.775L712.248 283.147L711.641 281.775ZM867.5 236.537C867.519 235.709 866.863 235.022 866.035 235.003L852.539 234.689C851.71 234.67 851.023 235.325 851.004 236.154C850.985 236.982 851.641 237.669 852.469 237.688L864.466 237.967L864.187 249.964C864.168 250.792 864.823 251.479 865.651 251.498C866.48 251.517 867.167 250.862 867.186 250.033L867.5 236.537ZM6.55013 0.341703C6.41109 0.626391 6.27502 0.916267 6.14235 1.21091L8.87787 2.44256C8.99766 2.17649 9.12045 1.91493 9.24579 1.6583L6.55013 0.341703ZM3.65949 10.5263C3.60567 11.1761 3.57804 11.8306 3.57986 12.4869L6.57984 12.4786C6.57827 11.9119 6.60213 11.3429 6.64925 10.7739L3.65949 10.5263ZM6.17586 22.0139C6.52636 22.5757 6.91601 23.1241 7.34692 23.6566L9.67892 21.7693C9.32553 21.3326 9.00707 20.8843 8.72118 20.426L6.17586 22.0139ZM15.2758 29.4057C15.8547 29.6534 16.4576 29.8875 17.0851 30.1075L18.0776 27.2764C17.5111 27.0778 16.9708 26.8678 16.4558 26.6475L15.2758 29.4057ZM26.3607 32.0879C26.9694 32.1528 27.5925 32.2091 28.2304 32.2565L28.4528 29.2648C27.8459 29.2197 27.2547 29.1662 26.6788 29.1048L26.3607 32.0879ZM37.5918 32.3431C38.1943 32.3151 38.8065 32.281 39.4286 32.2407L39.2346 29.2469C38.6302 29.2861 38.0361 29.3192 37.4522 29.3464L37.5918 32.3431ZM48.6672 31.2777C48.9791 31.2342 49.293 31.1894 49.6089 31.1433L49.1756 28.1747C48.8658 28.2199 48.5581 28.2639 48.2525 28.3065L48.6672 31.2777ZM49.6089 31.1433C49.9513 31.0933 50.2934 31.0438 50.6352 30.9949L50.2099 28.0252C49.8654 28.0745 49.5206 28.1244 49.1756 28.1747L49.6089 31.1433ZM60.8665 29.6828C61.5538 29.6057 62.2397 29.5311 62.9242 29.4592L62.6105 26.4756C61.919 26.5483 61.2262 26.6236 60.532 26.7015L60.8665 29.6828ZM73.1909 28.5776C73.8778 28.5328 74.5629 28.4911 75.2462 28.4527L75.0778 25.4574C74.3854 25.4964 73.6913 25.5386 72.9956 25.5839L73.1909 28.5776ZM85.5288 28.1288C86.2144 28.1254 86.8977 28.1258 87.5786 28.1303L87.5984 25.1304C86.9057 25.1258 86.2108 25.1253 85.5139 25.1288L85.5288 28.1288ZM97.8366 28.5248C98.5227 28.5747 99.2058 28.6295 99.8859 28.6893L100.149 25.7008C99.4533 25.6397 98.7552 25.5837 98.0544 25.5327L97.8366 28.5248ZM110.033 30.003C110.706 30.1203 111.375 30.2436 112.04 30.3729L112.612 27.428C111.928 27.295 111.24 27.1683 110.549 27.0476L110.033 30.003ZM121.937 32.8407C122.587 33.0419 123.233 33.2502 123.873 33.4657L124.829 30.622C124.165 30.3988 123.497 30.1831 122.824 29.9749L121.937 32.8407ZM133.271 37.3173C133.88 37.6163 134.483 37.9236 135.081 38.2393L136.481 35.5861C135.857 35.2569 135.229 34.9366 134.595 34.625L133.271 37.3173ZM143.659 43.6216C144.2 44.0219 144.736 44.4312 145.266 44.8496L147.125 42.4946C146.57 42.0567 146.009 41.6285 145.443 41.2097L143.659 43.6216ZM152.696 51.7173C153.154 52.2122 153.608 52.7164 154.055 53.2299L156.317 51.2588C155.849 50.7224 155.376 50.1956 154.896 49.6784L152.696 51.7173ZM160.139 61.3331C160.504 61.8973 160.863 62.4702 161.218 63.0519L163.78 61.4908C163.411 60.8866 163.038 60.2912 162.659 59.7046L160.139 61.3331ZM165.96 72.051C166.242 72.6718 166.519 73.3007 166.791 73.9377L169.55 72.7585C169.269 72.1014 168.983 71.4523 168.692 70.8111L165.96 72.051ZM170.322 83.507C170.525 84.1514 170.725 84.8028 170.92 85.4612L173.796 84.6076C173.596 83.9327 173.391 83.2646 173.182 82.6033L170.322 83.507ZM173.436 95.3931C173.509 95.7328 173.58 96.0742 173.651 96.4171L176.589 95.8122C176.517 95.4623 176.444 95.1139 176.37 94.7671L173.436 95.3931ZM173.651 96.4171C173.716 96.7354 173.779 97.0522 173.838 97.3676L176.786 96.8154C176.724 96.4823 176.658 96.1479 176.589 95.8122L173.651 96.4171ZM174.673 106.719C174.664 107.353 174.64 107.98 174.602 108.601L177.597 108.782C177.637 108.116 177.663 107.443 177.673 106.764L174.673 106.719ZM172.934 117.762C172.748 118.357 172.548 118.946 172.333 119.528L175.148 120.564C175.38 119.936 175.596 119.3 175.798 118.657L172.934 117.762ZM168.078 127.83C167.73 128.35 167.37 128.863 166.998 129.371L169.417 131.145C169.814 130.603 170.199 130.054 170.572 129.497L168.078 127.83ZM160.717 136.376C160.258 136.803 159.79 137.225 159.312 137.642L161.284 139.903C161.786 139.465 162.278 139.022 162.761 138.572L160.717 136.376ZM151.722 143.355C151.193 143.702 150.656 144.044 150.114 144.381L151.697 146.929C152.26 146.58 152.816 146.225 153.365 145.865L151.722 143.355ZM141.743 148.994C141.173 149.273 140.598 149.548 140.018 149.82L141.291 152.537C141.886 152.258 142.476 151.975 143.063 151.688L141.743 148.994ZM131.174 153.545C130.574 153.771 129.972 153.995 129.367 154.214L130.391 157.034C131.009 156.81 131.624 156.582 132.236 156.35L131.174 153.545ZM120.229 157.217C119.613 157.399 118.996 157.578 118.378 157.754L119.199 160.64C119.828 160.461 120.455 160.278 121.081 160.093L120.229 157.217ZM109.046 160.155C108.419 160.3 107.791 160.442 107.163 160.582L107.812 163.51C108.449 163.369 109.086 163.225 109.723 163.077L109.046 160.155ZM97.6998 162.463C97.0644 162.575 96.4301 162.684 95.797 162.791L96.2948 165.749C96.936 165.641 97.5784 165.531 98.222 165.417L97.6998 162.463ZM86.2451 164.202C85.6082 164.284 84.9738 164.362 84.3423 164.438L84.6991 167.417C85.3383 167.34 85.9804 167.261 86.6251 167.178L86.2451 164.202ZM74.7358 165.399C74.0833 165.451 73.4359 165.5 72.7938 165.546L73.0087 168.538C73.659 168.492 74.3146 168.442 74.9752 168.389L74.7358 165.399ZM63.1644 166.031C62.8478 166.04 62.5334 166.048 62.2211 166.055L62.2898 169.054C62.6069 169.047 62.9261 169.039 63.2474 169.03L63.1644 166.031ZM62.097 166.063C61.7743 166.097 61.4497 166.133 61.1233 166.171L61.4672 169.151C61.7846 169.114 62.1003 169.079 62.4139 169.046L62.097 166.063ZM51.3147 167.74C50.6706 167.871 50.0236 168.009 49.3744 168.153L50.0247 171.082C50.657 170.941 51.2873 170.807 51.9149 170.679L51.3147 167.74ZM39.7807 170.732C39.1493 170.933 38.5187 171.14 37.8895 171.354L38.8553 174.195C39.4658 173.987 40.0779 173.786 40.691 173.59L39.7807 170.732ZM28.6414 175.056C28.0378 175.339 27.4383 175.628 26.8436 175.925L28.1829 178.609C28.7546 178.324 29.3313 178.045 29.9126 177.773L28.6414 175.056ZM18.2219 181.021C17.6704 181.408 17.1272 181.804 16.5929 182.208L18.4025 184.601C18.9077 184.219 19.4221 183.844 19.9453 183.477L18.2219 181.021ZM9.19891 189.086C8.75609 189.601 8.32671 190.127 7.9116 190.663L10.2836 192.5C10.667 192.005 11.0643 191.518 11.4749 191.04L9.19891 189.086ZM2.85176 199.506C2.60357 200.139 2.37347 200.783 2.16221 201.437L5.01707 202.359C5.20945 201.763 5.41902 201.177 5.64513 200.6L2.85176 199.506ZM0.507037 211.506C0.494212 212.172 0.498863 212.846 0.52143 213.527L3.51979 213.428C3.49893 212.798 3.49467 212.177 3.50648 211.564L0.507037 211.506ZM2.03498 223.524C2.20358 224.167 2.38659 224.816 2.58428 225.471L5.45624 224.604C5.269 223.983 5.096 223.37 4.93692 222.763L2.03498 223.524ZM6.23159 234.802C6.50899 235.386 6.79715 235.973 7.09623 236.565L9.77373 235.212C9.48536 234.641 9.20784 234.075 8.94101 233.514L6.23159 234.802ZM12.0688 245.213C12.416 245.754 12.7717 246.299 13.136 246.846L15.6332 245.183C15.278 244.65 14.9315 244.12 14.5936 243.593L12.0688 245.213ZM18.9529 254.9C19.1609 255.168 19.3707 255.436 19.5826 255.705L21.9398 253.85C21.7319 253.586 21.526 253.322 21.3221 253.06L18.9529 254.9ZM19.5826 255.705C19.7931 255.973 20.004 256.239 20.2151 256.503L22.5591 254.631C22.3524 254.372 22.1459 254.112 21.9398 253.85L19.5826 255.705ZM26.7419 264.091C27.1945 264.578 27.6482 265.059 28.1029 265.534L30.2693 263.459C29.8255 262.996 29.3827 262.526 28.9407 262.05L26.7419 264.091ZM35.3265 272.471C35.8305 272.915 36.3355 273.352 36.8414 273.781L38.783 271.495C38.2909 271.077 37.7996 270.652 37.3091 270.22L35.3265 272.471ZM44.7736 279.897C45.3264 280.282 45.8798 280.659 46.434 281.029L48.0984 278.533C47.561 278.175 47.0242 277.809 46.488 277.436L44.7736 279.897ZM55.0586 286.153C55.6539 286.465 56.2496 286.769 56.8457 287.065L58.1804 284.378C57.6039 284.092 57.0275 283.798 56.4515 283.496L55.0586 286.153ZM66.0762 291.027C66.7049 291.256 67.3335 291.477 67.9619 291.69L68.9245 288.849C68.3175 288.643 67.7102 288.43 67.1028 288.208L66.0762 291.027ZM77.649 294.367C78.3078 294.509 78.9659 294.644 79.6232 294.77L80.1894 291.824C79.5544 291.702 78.9186 291.572 78.2821 291.435L77.649 294.367ZM89.5775 296.11C90.247 296.162 90.915 296.207 91.5815 296.245L91.7507 293.25C91.1059 293.213 90.4596 293.17 89.812 293.119L89.5775 296.11ZM101.616 296.275C102.287 296.242 102.955 296.202 103.621 296.156L103.412 293.163C102.766 293.208 102.118 293.247 101.468 293.279L101.616 296.275ZM113.578 294.958C114.238 294.845 114.894 294.727 115.547 294.603L114.987 291.656C114.353 291.776 113.715 291.891 113.075 292L113.578 294.958ZM125.292 292.28C125.939 292.095 126.58 291.904 127.217 291.709L126.338 288.84C125.718 289.031 125.093 289.216 124.464 289.397L125.292 292.28ZM136.64 288.357C137.267 288.102 137.888 287.844 138.502 287.582L137.325 284.823C136.727 285.078 136.123 285.329 135.512 285.577L136.64 288.357ZM147.522 283.249C148.12 282.928 148.708 282.604 149.287 282.279L147.817 279.664C147.255 279.98 146.683 280.294 146.102 280.607L147.522 283.249ZM157.777 276.918C158.047 276.725 158.314 276.533 158.577 276.341L156.808 273.918C156.555 274.103 156.298 274.288 156.037 274.474L157.777 276.918ZM158.136 276.562C158.45 276.465 158.769 276.369 159.092 276.275L158.249 273.395C157.912 273.494 157.578 273.595 157.249 273.697L158.136 276.562ZM169.061 274.1C169.724 274 170.395 273.906 171.076 273.82L170.699 270.844C169.994 270.933 169.299 271.03 168.612 271.134L169.061 274.1ZM181.273 273.139C181.95 273.133 182.633 273.136 183.32 273.147L183.367 270.147C182.657 270.136 181.95 270.133 181.249 270.139L181.273 273.139ZM193.505 273.924C194.174 274.017 194.846 274.119 195.518 274.229L196.005 271.269C195.307 271.154 194.611 271.049 193.917 270.953L193.505 273.924ZM205.449 276.535C206.097 276.732 206.745 276.938 207.392 277.155L208.343 274.309C207.67 274.084 206.996 273.869 206.321 273.665L205.449 276.535ZM216.789 281.053C217.394 281.357 217.997 281.671 218.598 281.995L220.022 279.354C219.395 279.016 218.766 278.689 218.135 278.372L216.789 281.053ZM227.165 287.464C227.705 287.868 228.243 288.282 228.777 288.707L230.643 286.358C230.086 285.915 229.525 285.483 228.961 285.061L227.165 287.464ZM236.272 295.604C236.731 296.091 237.186 296.587 237.638 297.093L239.876 295.096C239.406 294.569 238.933 294.053 238.455 293.546L236.272 295.604ZM243.904 305.131C244.288 305.694 244.667 306.267 245.043 306.849L247.563 305.221C247.174 304.619 246.781 304.026 246.383 303.442L243.904 305.131ZM250.081 315.735C250.382 316.34 250.679 316.953 250.971 317.575L253.685 316.297C253.384 315.657 253.078 315.025 252.769 314.401L250.081 315.735ZM254.886 327.065C255.113 327.697 255.337 328.337 255.557 328.983L258.397 328.017C258.172 327.355 257.942 326.699 257.709 326.05L254.886 327.065ZM258.472 338.848C258.558 339.186 258.643 339.526 258.727 339.867L261.64 339.15C261.554 338.801 261.467 338.454 261.379 338.109L258.472 338.848ZM258.727 339.867C258.81 340.206 258.896 340.543 258.985 340.879L261.886 340.114C261.801 339.795 261.719 339.473 261.64 339.15L258.727 339.867ZM262.413 350.511C262.695 351.127 262.988 351.736 263.29 352.336L265.969 350.986C265.684 350.419 265.407 349.844 265.139 349.26L262.413 350.511ZM268.748 361.011C269.166 361.552 269.592 362.083 270.029 362.606L272.332 360.684C271.92 360.19 271.517 359.688 271.123 359.178L268.748 361.011ZM277.278 369.813C277.803 370.249 278.336 370.676 278.878 371.095L280.713 368.721C280.198 368.323 279.692 367.918 279.193 367.504L277.278 369.813ZM287.399 376.661C287.994 376.988 288.595 377.308 289.202 377.621L290.576 374.954C289.993 374.654 289.416 374.347 288.847 374.033L287.399 376.661ZM298.49 381.684C299.121 381.917 299.758 382.143 300.399 382.364L301.375 379.527C300.754 379.314 300.138 379.094 299.528 378.869L298.49 381.684ZM310.117 385.183C310.765 385.339 311.416 385.49 312.071 385.636L312.725 382.708C312.086 382.566 311.451 382.418 310.819 382.266L310.117 385.183ZM321.993 387.453C322.658 387.55 323.325 387.643 323.995 387.731L324.389 384.757C323.732 384.67 323.078 384.579 322.427 384.484L321.993 387.453ZM333.988 388.743C334.655 388.791 335.325 388.836 335.996 388.877L336.179 385.883C335.519 385.842 334.86 385.798 334.204 385.751L333.988 388.743ZM346.046 389.24C346.71 389.248 347.375 389.254 348.042 389.256L348.052 386.256C347.394 386.254 346.738 386.249 346.082 386.241L346.046 389.24ZM358.069 389.08C358.737 389.055 359.406 389.027 360.075 388.997L359.94 386C359.278 386.03 358.616 386.057 357.956 386.082L358.069 389.08ZM370.082 388.365C370.746 388.312 371.411 388.256 372.075 388.198L371.815 385.209C371.157 385.267 370.499 385.322 369.842 385.375L370.082 388.365ZM382.039 387.174C382.702 387.095 383.365 387.015 384.027 386.933L383.658 383.956C383.001 384.037 382.344 384.117 381.687 384.194L382.039 387.174ZM393.942 385.562C394.604 385.462 395.265 385.359 395.925 385.255L395.458 382.292C394.803 382.395 394.147 382.497 393.491 382.596L393.942 385.562ZM405.793 383.573C406.449 383.452 407.104 383.33 407.757 383.207L407.202 380.259C406.553 380.381 405.903 380.502 405.252 380.622L405.793 383.573ZM417.559 381.24C418.217 381.1 418.873 380.959 419.527 380.816L418.889 377.885C418.239 378.026 417.588 378.167 416.934 378.306L417.559 381.24ZM429.281 378.575C429.927 378.419 430.571 378.262 431.213 378.104L430.495 375.191C429.858 375.348 429.218 375.504 428.576 375.659L429.281 378.575ZM440.907 375.597C441.557 375.422 442.203 375.245 442.846 375.068L442.048 372.176C441.41 372.352 440.769 372.527 440.124 372.702L440.907 375.597ZM452.432 372.304C453.083 372.107 453.729 371.911 454.371 371.714L453.491 368.846C452.854 369.041 452.213 369.236 451.566 369.431L452.432 372.304ZM463.892 368.655C464.202 368.55 464.511 368.446 464.818 368.342L463.853 365.501C463.548 365.604 463.243 365.708 462.935 365.811L463.892 368.655ZM464.879 368.319C465.182 368.202 465.487 368.084 465.795 367.966L464.723 365.164C464.41 365.284 464.099 365.404 463.791 365.523L464.879 368.319ZM475.255 364.632C475.89 364.426 476.533 364.221 477.181 364.017L476.283 361.155C475.625 361.361 474.973 361.569 474.329 361.779L475.255 364.632ZM486.822 361.231C487.465 361.061 488.112 360.894 488.763 360.728L488.022 357.821C487.362 357.989 486.707 358.159 486.055 358.331L486.822 361.231ZM498.549 358.472C499.205 358.337 499.864 358.205 500.525 358.075L499.947 355.131C499.277 355.262 498.609 355.397 497.944 355.534L498.549 358.472ZM510.415 356.389C511.076 356.294 511.737 356.202 512.4 356.113L512.003 353.14C511.33 353.23 510.658 353.323 509.987 353.42L510.415 356.389ZM522.37 355.07C523.036 355.02 523.702 354.975 524.368 354.933L524.182 351.939C523.503 351.981 522.825 352.028 522.146 352.079L522.37 355.07ZM534.37 354.651C535.036 354.656 535.701 354.666 536.364 354.682L536.433 351.682C535.754 351.667 535.074 351.657 534.393 351.651L534.37 354.651ZM546.319 355.329C546.984 355.403 547.646 355.482 548.305 355.568L548.692 352.593C548.013 352.505 547.332 352.423 546.648 352.347L546.319 355.329ZM558.077 357.379C558.72 357.537 559.359 357.703 559.993 357.876L560.783 354.982C560.124 354.802 559.46 354.63 558.793 354.466L558.077 357.379ZM569.322 361.135C569.927 361.399 570.527 361.673 571.121 361.955L572.409 359.245C571.785 358.949 571.156 358.662 570.52 358.385L569.322 361.135ZM579.583 366.937C580.114 367.32 580.637 367.714 581.152 368.117L583.003 365.756C582.456 365.328 581.902 364.911 581.339 364.505L579.583 366.937ZM588.197 374.903C588.614 375.398 589.024 375.904 589.424 376.421L591.795 374.583C591.369 374.034 590.934 373.496 590.49 372.969L588.197 374.903ZM594.612 384.721C594.905 385.31 595.189 385.909 595.464 386.519L598.199 385.285C597.908 384.641 597.608 384.008 597.299 383.386L594.612 384.721ZM598.729 395.793C598.815 396.117 598.899 396.444 598.981 396.773L601.892 396.05C601.807 395.706 601.719 395.365 601.63 395.026L598.729 395.793ZM598.981 396.773C599.066 397.116 599.152 397.458 599.239 397.798L602.146 397.054C602.06 396.722 601.976 396.387 601.892 396.05L598.981 396.773ZM602.163 407.67C602.382 408.313 602.604 408.947 602.83 409.573L605.652 408.556C605.433 407.947 605.216 407.329 605.003 406.703L602.163 407.67ZM606.823 419.117C607.121 419.733 607.423 420.337 607.729 420.931L610.396 419.558C610.102 418.986 609.811 418.403 609.523 417.809L606.823 419.117ZM613.098 429.798C613.514 430.38 613.935 430.948 614.36 431.501L616.739 429.673C616.335 429.148 615.935 428.608 615.539 428.054L613.098 429.798ZM621.474 439.124C622.008 439.589 622.546 440.036 623.088 440.466L624.952 438.116C624.446 437.715 623.943 437.297 623.444 436.862L621.474 439.124ZM632.044 445.938C632.693 446.229 633.345 446.5 633.999 446.753L635.08 443.954C634.475 443.72 633.872 443.469 633.27 443.2L632.044 445.938ZM644.215 449.234C644.913 449.312 645.611 449.372 646.308 449.415L646.494 446.421C645.845 446.381 645.195 446.325 644.546 446.253L644.215 449.234ZM656.767 448.868C657.458 448.756 658.144 448.63 658.827 448.491L658.229 445.551C657.585 445.682 656.938 445.801 656.287 445.906L656.767 448.868ZM668.8 445.467C669.448 445.205 670.089 444.932 670.721 444.651L669.501 441.91C668.9 442.178 668.291 442.436 667.675 442.686L668.8 445.467ZM679.833 439.628C680.42 439.234 680.993 438.835 681.551 438.431L679.79 436.002C679.262 436.384 678.72 436.763 678.163 437.136L679.833 439.628ZM689.333 431.378C689.562 431.108 689.784 430.838 689.996 430.569L687.642 428.709C687.452 428.95 687.253 429.193 687.045 429.438L689.333 431.378ZM689.996 430.569C690.244 430.255 690.468 429.924 690.67 429.578L688.076 428.07C687.944 428.297 687.799 428.51 687.642 428.709L689.996 430.569ZM691.876 418.862C691.788 418.201 691.681 417.524 691.558 416.831L688.604 417.356C688.721 418.011 688.82 418.645 688.902 419.258L691.876 418.862ZM689.142 406.973C688.958 406.34 688.767 405.698 688.57 405.048L685.699 405.915C685.893 406.557 686.081 407.19 686.262 407.813L689.142 406.973ZM685.537 395.489C685.332 394.859 685.124 394.223 684.916 393.582L682.063 394.512C682.272 395.153 682.479 395.788 682.684 396.418L685.537 395.489ZM681.864 384.082C681.668 383.456 681.473 382.826 681.279 382.194L678.411 383.075C678.607 383.713 678.804 384.347 679.001 384.977L681.864 384.082ZM678.506 372.644C678.334 372.008 678.164 371.369 677.998 370.729L675.095 371.486C675.264 372.135 675.436 372.782 675.61 373.427L678.506 372.644ZM675.749 361.08C675.618 360.434 675.491 359.787 675.369 359.139L672.421 359.695C672.546 360.356 672.675 361.016 672.808 361.675L675.749 361.08ZM673.909 349.38C673.839 348.726 673.775 348.073 673.718 347.42L670.729 347.683C670.789 348.356 670.855 349.028 670.927 349.7L673.909 349.38ZM673.371 337.608C673.385 336.954 673.407 336.302 673.438 335.651L670.442 335.509C670.41 336.186 670.386 336.863 670.371 337.542L673.371 337.608ZM674.583 325.96C674.708 325.323 674.843 324.687 674.988 324.055L672.064 323.383C671.911 324.048 671.77 324.716 671.639 325.385L674.583 325.96ZM677.973 314.824C678.227 314.229 678.493 313.636 678.771 313.047L676.059 311.766C675.764 312.39 675.483 313.017 675.214 313.647L677.973 314.824ZM683.711 304.731C684.092 304.208 684.486 303.689 684.892 303.174L682.536 301.317C682.107 301.861 681.691 302.41 681.287 302.963L683.711 304.731ZM691.533 296.125C692.021 295.688 692.52 295.254 693.032 294.824L691.101 292.527C690.565 292.978 690.041 293.433 689.53 293.892L691.533 296.125ZM700.901 289.122C701.448 288.779 702.005 288.439 702.573 288.103L701.043 285.522C700.455 285.871 699.876 286.224 699.308 286.58L700.901 289.122ZM711.318 283.564C711.625 283.424 711.936 283.285 712.248 283.147L711.034 280.403C710.713 280.546 710.393 280.689 710.076 280.833L711.318 283.564ZM712.248 283.147C712.558 283.01 712.867 282.874 713.175 282.739L711.972 279.991C711.661 280.127 711.348 280.265 711.034 280.403L712.248 283.147ZM722.272 278.993C722.888 278.756 723.5 278.524 724.107 278.297L723.056 275.487C722.44 275.717 721.819 275.953 721.194 276.193L722.272 278.993ZM733.314 275.126C733.955 274.925 734.591 274.73 735.221 274.54L734.357 271.667C733.715 271.86 733.068 272.059 732.416 272.264L733.314 275.126ZM744.657 272.023C745.295 271.875 745.927 271.733 746.554 271.597L745.917 268.665C745.276 268.804 744.63 268.95 743.979 269.101L744.657 272.023ZM756.161 269.869C756.815 269.777 757.463 269.69 758.105 269.609L757.73 266.632C757.072 266.715 756.409 266.804 755.74 266.899L756.161 269.869ZM767.82 268.758C768.479 268.725 769.132 268.697 769.779 268.674L769.672 265.676C769.011 265.7 768.344 265.728 767.671 265.762L767.82 268.758ZM779.548 268.641C780.209 268.657 780.864 268.676 781.514 268.698L781.614 265.7C780.956 265.678 780.292 265.658 779.622 265.642L779.548 268.641ZM791.35 269.146C792.012 269.179 792.67 269.21 793.326 269.24L793.463 266.244C792.812 266.214 792.157 266.182 791.497 266.15L791.35 269.146ZM803.281 269.459C803.949 269.45 804.616 269.434 805.284 269.412L805.184 266.414C804.537 266.435 803.89 266.45 803.241 266.459L803.281 269.459ZM815.307 268.437C815.962 268.326 816.621 268.204 817.282 268.071L816.689 265.13C816.058 265.257 815.431 265.373 814.805 265.479L815.307 268.437ZM826.997 265.296C827.616 265.066 828.238 264.824 828.865 264.569L827.738 261.789C827.138 262.033 826.543 262.264 825.951 262.484L826.997 265.296ZM837.904 260.183C838.481 259.858 839.063 259.522 839.648 259.175L838.12 256.594C837.552 256.93 836.99 257.255 836.432 257.57L837.904 260.183ZM847.988 253.685C848.527 253.296 849.071 252.898 849.618 252.49L847.826 250.084C847.29 250.483 846.759 250.872 846.233 251.252L847.988 253.685ZM857.394 246.29C857.892 245.868 858.393 245.439 858.898 245.002L856.935 242.734C856.438 243.164 855.945 243.586 855.455 244.001L857.394 246.29ZM866.289 238.297C866.537 238.062 866.786 237.825 867.036 237.587L864.964 235.417C864.718 235.653 864.472 235.887 864.227 236.119L866.289 238.297Z" fill="#1E2F74"/>
</svg>
